<svg overflow="hidden" viewBox="0 0 96 96" xmlns="http://www.w3.org/2000/svg"><circle cx="73" cy="16.2" r="7" fill="#ffffff" class="fill-000000"></circle><circle cx="23" cy="16.2" r="7" fill="#ffffff" class="fill-000000"></circle><circle cx="48" cy="16.2" r="7" fill="#ffffff" class="fill-000000"></circle><path d="m65.8 48.8-4.5-16.6c-.2-.6-.5-1.2-.9-1.6-1.9-2-4.3-3.5-6.9-4.4-1.7-.6-3.5-.9-5.4-.9-1.9 0-3.7.3-5.4.9-2.7.9-5 2.4-6.9 4.4-.4.5-.7 1-.9 1.6l-4.5 16.6c-.4 1.6.4 3.4 2.1 3.8.3.1.5.1.8.1 1.3 0 2.5-.9 2.9-2.2l4-14.6v50.9h6V58.2h4v28.5h6V35.9l4 14.6c.4 1.3 1.6 2.2 2.9 2.2.3 0 .5 0 .8-.1 1.4-.4 2.3-2.2 1.9-3.8Z" fill="#ffffff" class="fill-000000"></path><path d="m28.3 48.3 4.5-16.6c.2-.9.7-1.7 1.2-2.4-1.6-1.4-3.6-2.5-5.7-3.2-1.7-.6-3.5-.9-5.4-.9-1.9 0-3.7.3-5.4.9-2.7.9-5 2.4-6.9 4.4-.4.5-.7 1-.9 1.6L5.2 48.8c-.4 1.6.4 3.4 2.1 3.8.3.1.5.1.8.1 1.3 0 2.5-.9 2.9-2.2l4-14.6v50.9h6V58.2h4v28.5h6V54.3c-2.1-1-3.3-3.5-2.7-6ZM90.8 48.8l-4.6-16.6c-.2-.6-.5-1.2-.9-1.6-1.9-2-4.3-3.5-6.9-4.4-1.7-.6-3.5-.9-5.4-.9-1.9 0-3.7.3-5.4.9-2.1.7-4 1.8-5.7 3.2.6.7 1 1.5 1.2 2.3l4.5 16.6c.7 2.5-.6 5-2.7 6v32.5h6V58.2h4v28.5h6V35.9l4 14.6c.4 1.3 1.6 2.2 2.9 2.2.3 0 .5 0 .8-.1 1.7-.4 2.6-2.2 2.2-3.8Z" fill="#ffffff" class="fill-000000"></path></svg>